<svg 
          width="95.123291015625" 
          height="121.448486328125" fill="none" 
          xmlns="http://www.w3.org/2000/svg">
          <path d="M 57.17786397957345 19.155615151035754 C 57.17786397957345 19.155615151035754 46.75329611252632 3.1591844281781047 40.91553810697993 1.896309396074354 C 35.07778010143354 0.6334343639706033 29.657003219906215 1.4753510520397703 26.321141502451134 1.896309396074354 C 22.985279784996052 2.3172677401089374 11.726746886250858 -1.8923157002368982 5.055023451340696 1.054392708005187 C -1.6166999835694664 4.001101116247272 5.055023451340696 38.5196989766266 5.055023451340696 38.5196989766266 C 5.055023451340696 38.5196989766266 -2.4506653135168106 82.72032510025787 0.8851964039382706 94.08620038919163 C 4.221058121393352 105.4520756781254 1.7191618084479343 107.55686097498373 0.051230949720393736 108.81973600708749 C -1.6166999090071468 110.08261103919124 37.996659104206735 121.448486328125 37.996659104206735 121.448486328125 L 75.5251034255764 121.448486328125 C 75.5251034255764 121.448486328125 75.5251034255764 109.24070077443665 79.27794785771337 106.29399236619456 C 83.03079228985034 103.34728395795247 82.61380957516845 41.0454490408341 82.61380957516845 41.0454490408341 L 95.123291015625 16.629865086828254 C 95.123291015625 16.629865086828254 93.03837744221558 7.368780715153092 84.28174043389599 6.947822371118509 C 75.5251034255764 6.526864027083925 67.70868812309745 1.8859164730908342 67.70868812309745 1.8859164730908342 L 61.76467384107419 19.155615151035754 L 57.17786397957345 19.155615151035754 Z" fill="rgb(239.00000095367432,207.00000286102295,100.00000163912773)"/>
        </svg>