<svg 
          width="50.454898834228516" 
          height="42.84864807128906" fill="none" 
          xmlns="http://www.w3.org/2000/svg">
          <path d="M 50.454898834228516 5.548718699367332 L 46.7020551192859 3.44392613146222 C 46.7020551192859 3.44392613146222 39.61335032439428 3.8648846450432424 38.362402419413414 3.44392613146222 C 37.111454514432545 3.0229676178811977 21.26611438467483 -2.0285344447267404 15.011374859770466 0.9181751503404165 C 8.756635334866104 3.864884745407573 4.586808984929865 0.07625809808728909 4.586808984929865 0.07625809808728909 C 4.586808984929865 0.07625809808728909 25.018958099617446 17.756528038393984 0 23.228988714947274 C 0 23.228988714947274 0.41698263499362387 25.333781282852385 6.6717221598979854 26.596656823595453 C 12.926461684802348 27.85953236433852 14.177409589783217 29.122407905081587 16.679305399744962 31.2272004729867 C 19.181201209706707 33.33199304089181 24.184992829630197 35.436785608796924 27.52085390957919 36.27870263595897 C 30.856714989528186 37.12061966312102 41.698263499362405 44.27691439399839 43.366194039336904 42.5930803396743 C 45.0341245793114 40.909246285350214 47.95300302426677 35.015827095215904 47.95300302426677 35.015827095215904 L 50.454898834228516 5.548718699367332 Z" fill="rgb(227.37499594688416,185.0817909836769,67.26510018110275)"/>
        </svg>