<svg 
          width="33.11981201171875" 
          height="109.93048095703125" fill="none" 
          xmlns="http://www.w3.org/2000/svg">
          <path d="M 33.11981201171875 89.25040376088663 C 33.11981201171875 89.25040376088663 27.282052700210862 77.46357153748319 26.031104276316313 76.62165495009724 C 24.780155852421764 75.77973836271129 18.942396540913876 46.73361288623878 18.942396540913876 46.73361288623878 C 18.942396540913876 46.73361288623878 28.11601831614056 31.579114313291512 19.776362156843575 24.843781614203838 C 19.776362156843575 24.843781614203838 35.204726051543 2.9539382984555047 30.200932355964806 3.3748965921484846 C 25.197138660386614 3.7958548858414645 15.189551269230233 19.79228208988808 15.189551269230233 19.79228208988808 C 15.189551269230233 19.79228208988808 12.896145825423563 19.160831802720995 13.73011144135326 15.793165453177158 C 14.564077057282958 12.42549910363332 17.691448117019327 0.42818838731940134 15.189551269230233 0.007230093626421703 C 12.687654421441138 -0.41372820006655797 7.683860725862948 17.687477774795568 7.683860725862948 17.687477774795568 C 7.683860725862948 17.687477774795568 -2.5322178207347363 36.420134690760776 0.5951532390016324 42.94498824300196 C 2.4145603427471976 46.60698889677879 4.505424606143914 50.12498648267502 6.849895109933249 53.46894558532645 L 13.938602845335685 105.66777721491283 C 13.938602845335685 105.66777721491283 27.69903550817571 122.50610896263203 33.11981201171875 89.25040376088663 Z" fill="rgb(159.0000057220459,97.00000181794167,106.00000128149986)"/>
        </svg>