<svg 
          width="18.34723663330078" 
          height="18.52215576171875" fill="none" 
          xmlns="http://www.w3.org/2000/svg">
          <defs>
            <linearGradient id="e15105">
        <stop offset="0%" style="stop-color:rgb(132.0000073313713,145.00000655651093,246.0000005364418);stop-opacity:1" />
        <stop offset="100%" style="stop-color:rgb(79.95312094688416,168.98441076278687,223.125);stop-opacity:1" />
        </linearGradient>
          </defs>
          <path d="M 9.17361990731283 18.52215576171875 C 7.359249684530235 18.52215576171875 5.585616127996795 17.979001565154945 4.077022524997535 16.96138134012278 C 2.568428921998274 15.943761115090615 1.3926323725217502 14.497381329519396 0.6983029982104229 12.80514081991422 C 0.003973623899095391 11.112900310309044 -0.17769303784185242 9.250803796396308 0.17627302365696823 7.4543308291242605 C 0.5302390851557889 5.6578578618522135 1.4039320905363144 4.007699567831416 2.686885553886341 2.7125146657042456 C 3.9698390172363673 1.4173297635770745 5.604426307845236 0.535294285591818 7.383933783103058 0.17795357775227613 C 9.16344125836088 -0.17938713008726573 11.007952546048656 0.004011507687427196 12.684211911837652 0.7049604886140143 C 14.360471277626647 1.4059094695406014 15.793191773495945 2.5929286904049977 16.801201818961918 4.115904943143162 C 17.80921186442789 5.638881195881327 18.347236633300756 7.429411396964458 18.34723663330078 9.261079486686894 C 18.344489644703305 11.71641866729794 17.377103740099308 14.070397814215749 15.657311919990496 15.806585808432207 C 13.937520099881684 17.542773802648664 11.605771409612121 18.51938258384488 9.17361990731283 18.52215576171875 L 9.17361990731283 18.52215576171875 Z M 9.17361990731283 0.8419183060078939 C 7.524192531472329 0.8419183060078939 5.911799455636063 1.3356925034654852 4.540350680447462 2.260801808073292 C 3.1689019052588607 3.185911112681099 2.0999902663786427 4.500810458159667 1.4687817081260166 6.039210985305239 C 0.8375731498733907 7.577611512450811 0.6724170547479691 9.270426807943373 0.9942043879021879 10.90358410566208 C 1.3159917210564067 12.536741403380788 2.110267337569052 14.036890115394595 3.2765886588494033 15.214330926386184 C 4.4429099801297545 16.391771737377773 5.928892614797198 17.193619829317694 7.546626737440529 17.51847502282474 C 9.16436086008386 17.84333021633179 10.841189185944273 17.67659955383202 12.365061399926525 17.039373171039042 C 13.888933613908776 16.402146788246064 15.191414745283973 15.323044144650641 16.107787522927257 13.938520232904937 C 17.024160300570543 12.553996321159232 17.51327140408995 10.926232195161253 17.51327140408995 9.261079486686894 C 17.51081129006544 7.0289414990895605 16.63138219981236 4.888937162813969 15.067926947515383 3.3105762200569955 C 13.504471695218406 1.7322152773000223 11.384678079130506 0.8444018743001807 9.17361990731283 0.8419183060078939 L 9.17361990731283 0.8419183060078939 Z" fill="url(#e15105)"/>
        </svg>