<svg 
          width="18.347240447998047" 
          height="18.522140502929688" fill="none" 
          xmlns="http://www.w3.org/2000/svg">
          <defs>
            <linearGradient id="e15106">
        <stop offset="0%" style="stop-color:rgb(132.0000073313713,145.00000655651093,246.0000005364418);stop-opacity:1" />
        <stop offset="100%" style="stop-color:rgb(79.95312094688416,168.98441076278687,223.125);stop-opacity:1" />
        </linearGradient>
          </defs>
          <path d="M 9.173621814661795 18.522140502929688 C 7.359251214641295 18.522140502929688 5.5856172893397815 17.978974566490702 4.077023372678687 16.96135641493865 C 2.5684294560175918 15.943738263386596 1.3926326620733056 14.497361424926336 0.6983031433992919 12.805124363392409 C 0.00397362472527818 11.112887301858482 -0.17769307478720603 9.250807428705745 0.17627306030707718 7.454338121886662 C 0.5302391954013603 5.657868815067578 1.40393238243727 4.007687989456279 2.686886112534773 2.7125057263687706 C 3.969839842632276 1.4173234632812621 5.604427473099172 0.5352898703301958 7.383935318346352 0.17794989060005326 C 9.163443163593533 -0.17939008913008933 11.007954834786048 0.004021034095132658 12.684214549097392 0.7049685867838217 C 14.360474263408737 1.4059161394725108 15.79319505716458 2.5929201954632513 16.801205312212694 4.115893345019214 C 17.809215567260807 5.6388664945751765 18.347240447998022 7.4294187405021335 18.347240447998047 9.261083098058815 C 18.344493458829426 11.716417275725902 17.377107353089723 14.070391626228679 15.657315175407437 15.80657608282748 C 13.937522997725152 17.54276053942628 11.605773822646048 18.519367330706384 9.173621814661795 18.522140502929688 L 9.173621814661795 18.522140502929688 Z M 9.173621814661795 0.8419389717095007 C 7.524194095877764 0.8419389717095486 5.911800684798018 1.3357120626998635 4.540351624462285 2.2608194823257324 C 3.168902564126552 3.185926901951601 2.099990703001731 4.500810922354859 1.468782013510292 6.0392083148900735 C 0.837573324018853 7.577605707425288 0.6724171945547177 9.27041755367543 0.9942045946139034 10.903571523709514 C 1.3159919946730891 12.5367254937436 2.1102677763289153 14.036858302494116 3.2765893401069706 15.214296714358758 C 4.442910903885026 16.391735126223402 5.928893847513105 17.19358158433566 7.546628306510409 17.518436115925063 C 9.164362765507713 17.843290647514465 10.841191440008771 17.67656032474135 12.365063970829535 17.039335240346535 C 13.8889365016503 16.40211015595172 15.191417903833102 15.323022557705576 16.10779087200561 13.938501467034694 C 17.024163840178115 12.553980376363812 17.513275045391897 10.92623241365542 17.513275045391897 9.261083098058815 C 17.51081493085589 7.028949658615705 16.6313856577548 4.888949482036846 15.067930080389335 3.310591755312675 C 13.50447450302387 1.732234028588504 11.384680446195434 0.8444225349413246 9.173621814661795 0.8419389717095007 L 9.173621814661795 0.8419389717095007 Z" fill="url(#e15106)"/>
        </svg>