<svg 
          width="47.19795227050781" 
          height="33.159019470214844" fill="none" 
          xmlns="http://www.w3.org/2000/svg">
          <path d="M 41.02485747909347 0.0191903544063475 L 6.530211084103579 2.868380772858349 C 5.172683542305302 2.9805173517104038 3.899626696626591 3.5790424625658868 2.940993330684467 4.555863305420392 C 1.982359964742343 5.532684148274897 1.4013557281347804 6.823397415228731 1.3029152904310097 8.194851971674362 L 0.014929547033063536 26.13854005070112 C -0.04175976296163611 26.92824702342613 0.06337732941691598 27.721272793327795 0.3237791413342213 28.468135642621835 C 0.5841809532515266 29.214998491915875 0.9942544864555407 29.899665421089882 1.528420479369775 30.479417360656555 C 2.0625864722840097 31.05916930022323 2.7093769118360713 31.52156423588472 3.4284299036603114 31.837743260303874 C 4.1474828954845515 32.15392228472302 4.9233722342646 32.3171038395102 5.7076726041857455 32.31710252619224 L 21.2545384988202 32.31710252619224 L 21.2545384988202 33.159019470214844 L 27.509282049815177 33.159019470214844 L 27.509282049815177 32.31710252619224 L 30.845145277012495 32.31710252619224 L 30.845145277012495 33.159019470214844 L 37.09988882800747 33.159019470214844 L 37.09988882800747 32.31710252619224 L 40.4340468638884 32.31710252619224 C 41.89721196213532 32.31710105297549 43.30449784550426 31.74983595830998 44.36527636667339 30.732457491980004 C 45.426054887842525 29.715079025650027 46.059305108461274 28.32529132018887 46.134246928422485 26.850115055727553 L 47.19046024522777 6.057197924258071 C 47.23211990978321 5.2371121771045175 47.099668451027576 4.4175055190361 46.80198203249019 3.6533102533688107 C 46.5042956139528 2.8891149877015216 46.048253917585555 2.1979851984566405 45.464412148480115 1.6262270763096747 C 44.880570379374674 1.054468954162709 44.182420794230474 0.6152928524690708 43.41674460896747 0.33813371958489913 C 42.651068423704466 0.06097458670072736 41.83555679939729 -0.04777239421914749 41.02485747909347 0.0191903544063475 Z" fill="rgb(47.0000009983778,46.000001057982445,65.0000037252903)"/>
        </svg>